<svg width="65" height="17" viewBox="0 0 65 17" fill="none" xmlns="http://www.w3.org/2000/svg">
<path d="M0 3.5698C0 2.24546 1.07359 1.17188 2.39792 1.17188H8.34013C14.9618 1.17188 20.3297 6.53981 20.3297 13.1615V14.6045C20.3297 15.9288 19.2562 17.0024 17.9318 17.0024H2.39792C1.07359 17.0024 0 15.9288 0 14.6045V3.5698Z" fill="url(#paint0_linear_814_239)"/>
<g filter="url(#filter0_d_814_239)">
<rect x="4.79688" y="6.42969" width="0.719376" height="6.71418" rx="0.239792" fill="white"/>
<rect x="6.23828" y="7.39062" width="0.719376" height="5.03563" rx="0.359688" fill="white"/>
<rect x="7.67188" y="5.71094" width="0.719376" height="8.39272" rx="0.359688" fill="white"/>
<rect x="10.5547" y="4.75781" width="0.719376" height="10.0713" rx="0.359688" fill="white"/>
<rect x="13.4297" y="6.42969" width="0.719376" height="6.71418" rx="0.359688" fill="white"/>
<rect x="9.11328" y="8.34375" width="0.719376" height="3.59688" rx="0.359688" fill="white"/>
<rect x="11.9883" y="8.34375" width="0.719376" height="3.59688" rx="0.359688" fill="white"/>
</g>
<path d="M27.2135 5.38972L27.2021 4.74789L32.1991 9H29.9986L25.5516 5.10319L29.5058 1.5846H31.6719L27.2135 5.38972ZM24.0388 1.5846H25.5631V9H24.0388V1.5846ZM35.1687 9.12607C34.6032 9.12607 34.0875 9.00382 33.6214 8.75931C33.163 8.50717 32.7962 8.15951 32.5211 7.71635C32.2537 7.26554 32.12 6.74596 32.12 6.15762C32.12 5.554 32.2575 5.0306 32.5326 4.58744C32.8077 4.14427 33.1782 3.80044 33.6443 3.55593C34.1181 3.30378 34.6529 3.17771 35.2489 3.17771C35.906 3.17771 36.4332 3.31142 36.8305 3.57885C37.2355 3.83864 37.5297 4.19394 37.7131 4.64474C37.8964 5.09555 37.9881 5.59984 37.9881 6.15762C37.9881 6.49382 37.9346 6.83765 37.8277 7.18913C37.7207 7.53297 37.5564 7.85388 37.3348 8.15187C37.1132 8.44222 36.8229 8.67909 36.4638 8.86247C36.1047 9.0382 35.673 9.12607 35.1687 9.12607ZM35.65 7.97995C36.1008 7.97995 36.4905 7.90355 36.8191 7.75073C37.1476 7.59791 37.3998 7.38397 37.5755 7.1089C37.7513 6.83383 37.8391 6.51674 37.8391 6.15762C37.8391 5.76794 37.7474 5.43939 37.5641 5.17196C37.3883 4.89689 37.1362 4.69059 36.8076 4.55305C36.4867 4.40788 36.1008 4.33529 35.65 4.33529C35.0158 4.33529 34.523 4.50339 34.1715 4.83958C33.8201 5.16814 33.6443 5.60748 33.6443 6.15762C33.6443 6.52438 33.7284 6.84529 33.8965 7.12036C34.0646 7.38779 34.2976 7.59791 34.5956 7.75073C34.9012 7.90355 35.2527 7.97995 35.65 7.97995ZM37.8391 3.30378H39.3291V9H37.9423C37.9423 9 37.9308 8.92741 37.9079 8.78224C37.8926 8.62942 37.8773 8.4384 37.862 8.20918C37.8468 7.97995 37.8391 7.75455 37.8391 7.53297V3.30378ZM40.6776 3.30378H42.1675V9H40.6776V3.30378ZM44.8151 3.17771C45.1665 3.17771 45.4913 3.22355 45.7893 3.31524C46.0872 3.40693 46.347 3.54829 46.5686 3.73931C46.7902 3.93033 46.9621 4.17483 47.0844 4.47283C47.2066 4.76318 47.2678 5.11083 47.2678 5.51579V9H45.7778V5.7794C45.7778 5.29803 45.6594 4.94656 45.4225 4.72497C45.1933 4.49575 44.8151 4.38114 44.2878 4.38114C43.8905 4.38114 43.5314 4.45754 43.2105 4.61036C42.8896 4.76318 42.6298 4.95802 42.4311 5.19488C42.2325 5.42411 42.1179 5.66479 42.0873 5.91694L42.0758 5.33242C42.114 5.06499 42.2019 4.8052 42.3394 4.55305C42.477 4.30091 42.6603 4.07168 42.8896 3.86538C43.1264 3.65144 43.4053 3.48334 43.7262 3.36109C44.0472 3.23884 44.4101 3.17771 44.8151 3.17771ZM49.7778 3.17771C50.1292 3.17771 50.454 3.22355 50.752 3.31524C51.0499 3.40693 51.3097 3.54829 51.5313 3.73931C51.7529 3.93033 51.9248 4.17483 52.0471 4.47283C52.177 4.76318 52.2419 5.11083 52.2419 5.51579V9H50.752V5.7794C50.752 5.29803 50.6335 4.94656 50.3967 4.72497C50.1598 4.49575 49.7778 4.38114 49.2505 4.38114C48.8532 4.38114 48.4941 4.45754 48.1732 4.61036C47.8523 4.76318 47.5925 4.95802 47.3938 5.19488C47.1952 5.42411 47.0844 5.66479 47.0614 5.91694L47.0385 5.29803C47.0767 5.04589 47.1684 4.79374 47.3136 4.54159C47.4588 4.28945 47.6498 4.06022 47.8867 3.85392C48.1235 3.64762 48.3986 3.48334 48.7119 3.36109C49.0328 3.23884 49.3881 3.17771 49.7778 3.17771ZM55.3015 0.805241V2.11182H53.5709V0.805241H55.3015ZM53.6855 3.30378H55.1754V9H53.6855V3.30378ZM56.4313 7.1089H57.8067C57.8907 7.36869 58.0626 7.58263 58.3224 7.75073C58.5899 7.91119 58.9375 7.99141 59.3654 7.99141C59.6558 7.99141 59.8812 7.96467 60.0416 7.91119C60.2021 7.8577 60.3129 7.78129 60.374 7.68196C60.4351 7.57499 60.4657 7.45656 60.4657 7.32666C60.4657 7.16621 60.416 7.04395 60.3167 6.95991C60.2174 6.86822 60.0645 6.79563 59.8582 6.74214C59.6519 6.68866 59.3883 6.63899 59.0674 6.59315C58.7465 6.53966 58.437 6.47472 58.1391 6.39831C57.8411 6.3219 57.5775 6.22257 57.3482 6.10032C57.119 5.97042 56.9356 5.80997 56.7981 5.61895C56.6682 5.42028 56.6033 5.1796 56.6033 4.89689C56.6033 4.62182 56.6682 4.37732 56.7981 4.16337C56.9356 3.94943 57.1228 3.76987 57.3597 3.6247C57.6042 3.47952 57.8869 3.36873 58.2078 3.29232C58.5364 3.21591 58.8879 3.17771 59.2623 3.17771C59.8277 3.17771 60.2976 3.26176 60.672 3.42986C61.0464 3.59031 61.3253 3.81954 61.5086 4.11753C61.6997 4.40788 61.7952 4.74407 61.7952 5.12611H60.4771C60.416 4.8434 60.2938 4.64092 60.1104 4.51867C59.927 4.38878 59.6443 4.32383 59.2623 4.32383C58.8879 4.32383 58.6051 4.38114 58.4141 4.49575C58.2231 4.61036 58.1276 4.767 58.1276 4.96566C58.1276 5.12611 58.1849 5.25219 58.2995 5.34388C58.4218 5.42793 58.5975 5.49669 58.8267 5.55018C59.0636 5.60366 59.3578 5.66097 59.7092 5.7221C60.0072 5.78322 60.2899 5.85199 60.5574 5.9284C60.8324 6.00481 61.0769 6.10414 61.2909 6.22639C61.5048 6.341 61.6729 6.49764 61.7952 6.6963C61.9251 6.88732 61.99 7.13182 61.99 7.42982C61.99 7.79657 61.883 8.10603 61.6691 8.35817C61.4628 8.61032 61.1648 8.80516 60.7751 8.94269C60.3855 9.07259 59.9194 9.13753 59.3769 9.13753C58.8955 9.13753 58.4791 9.08787 58.1276 8.98854C57.7838 8.88157 57.4972 8.74785 57.268 8.5874C57.0388 8.4193 56.8592 8.24356 56.7293 8.06018C56.6071 7.86916 56.523 7.6896 56.4772 7.52151C56.4313 7.35341 56.4161 7.21587 56.4313 7.1089Z" fill="#4E67C2"/>
<mask id="path-10-outside-1_814_239" maskUnits="userSpaceOnUse" x="20" y="8" width="33" height="9" fill="black">
<rect fill="white" x="20" y="8" width="33" height="9"/>
<path d="M24.5259 16.1124C24.0764 16.1124 23.6916 16.0341 23.3715 15.8774C23.0513 15.7139 22.7925 15.5028 22.595 15.244C22.3975 14.9783 22.251 14.6923 22.1557 14.3858C22.0603 14.0725 22.0127 13.766 22.0127 13.4663C22.0127 13.0917 22.0569 12.7443 22.1455 12.4242C22.2408 12.1041 22.3873 11.8248 22.5848 11.5865C22.7823 11.3413 23.0411 11.1505 23.3612 11.0143C23.6814 10.8781 24.0696 10.81 24.5259 10.81C25.0504 10.81 25.5135 10.9224 25.9154 11.1471C26.324 11.3651 26.6442 11.6716 26.8757 12.0666C27.1141 12.4617 27.2333 12.9282 27.2333 13.4663C27.2333 13.9907 27.1141 14.4539 26.8757 14.8557C26.6373 15.2508 26.3138 15.5607 25.9052 15.7855C25.4965 16.0034 25.0368 16.1124 24.5259 16.1124ZM24.0968 15.0907C24.4578 15.0907 24.7711 15.0226 25.0368 14.8864C25.3024 14.7502 25.5067 14.5629 25.6497 14.3245C25.7996 14.0793 25.8745 13.7932 25.8745 13.4663C25.8745 12.9759 25.7179 12.5809 25.4046 12.2812C25.0981 11.9815 24.6622 11.8316 24.0968 11.8316C23.7018 11.8316 23.3578 11.8964 23.065 12.0258C22.7721 12.1552 22.5439 12.3425 22.3805 12.5877C22.2238 12.8261 22.1455 13.1189 22.1455 13.4663C22.1455 13.7864 22.2238 14.0691 22.3805 14.3143C22.5371 14.5595 22.7619 14.7502 23.0547 14.8864C23.3476 15.0226 23.695 15.0907 24.0968 15.0907ZM22.1455 8.87907V14.6923C22.1455 14.9102 22.1353 15.1452 22.1148 15.3972C22.0944 15.6424 22.074 15.8433 22.0535 16H20.8173V8.87907H22.1455ZM32.8436 14.3143H34.1309C34.0764 14.6616 33.93 14.9715 33.6916 15.244C33.46 15.5164 33.1433 15.731 32.7415 15.8876C32.3396 16.0443 31.8492 16.1226 31.2703 16.1226C30.6232 16.1226 30.0511 16.0204 29.5539 15.8161C29.0567 15.605 28.6685 15.3019 28.3892 14.9068C28.11 14.5118 27.9703 14.035 27.9703 13.4765C27.9703 12.918 28.1066 12.4412 28.379 12.0462C28.6514 11.6443 29.0295 11.3378 29.513 11.1267C30.0034 10.9156 30.5756 10.81 31.2294 10.81C31.8969 10.81 32.452 10.9156 32.8947 11.1267C33.3374 11.3378 33.6644 11.658 33.8755 12.0871C34.0935 12.5093 34.1854 13.0508 34.1514 13.7115H29.3087C29.3428 13.9703 29.4381 14.2053 29.5948 14.4164C29.7582 14.6276 29.9762 14.7944 30.2486 14.917C30.5279 15.0396 30.8582 15.1009 31.2396 15.1009C31.6619 15.1009 32.0127 15.0294 32.2919 14.8864C32.578 14.7366 32.7619 14.5458 32.8436 14.3143ZM31.1681 11.8214C30.6777 11.8214 30.2793 11.9304 29.9728 12.1484C29.6663 12.3595 29.4688 12.6217 29.3802 12.935H32.8334C32.7994 12.5945 32.6359 12.3254 32.343 12.1279C32.057 11.9236 31.6653 11.8214 31.1681 11.8214ZM37.612 16.1124C37.108 16.1124 36.6483 16.0034 36.2328 15.7855C35.8242 15.5607 35.4972 15.2508 35.252 14.8557C35.0136 14.4539 34.8944 13.9907 34.8944 13.4663C34.8944 12.9282 35.017 12.4617 35.2622 12.0666C35.5074 11.6716 35.8378 11.3651 36.2532 11.1471C36.6755 10.9224 37.1523 10.81 37.6836 10.81C38.2693 10.81 38.7393 10.9292 39.0934 11.1676C39.4544 11.3991 39.7167 11.7159 39.8801 12.1177C40.0436 12.5196 40.1253 12.9691 40.1253 13.4663C40.1253 13.766 40.0776 14.0725 39.9823 14.3858C39.8869 14.6923 39.7405 14.9783 39.543 15.244C39.3455 15.5028 39.0866 15.7139 38.7665 15.8774C38.4464 16.0341 38.0616 16.1124 37.612 16.1124ZM38.0411 15.0907C38.443 15.0907 38.7904 15.0226 39.0832 14.8864C39.3761 14.7502 39.6009 14.5595 39.7575 14.3143C39.9142 14.0691 39.9925 13.7864 39.9925 13.4663C39.9925 13.1189 39.9108 12.8261 39.7473 12.5877C39.5907 12.3425 39.3659 12.1586 39.073 12.036C38.7869 11.9066 38.443 11.8419 38.0411 11.8419C37.4758 11.8419 37.0365 11.9917 36.7232 12.2914C36.4099 12.5843 36.2532 12.9759 36.2532 13.4663C36.2532 13.7932 36.3282 14.0793 36.478 14.3245C36.6279 14.5629 36.8356 14.7502 37.1012 14.8864C37.3737 15.0226 37.687 15.0907 38.0411 15.0907ZM39.9925 10.9224H41.3207V16H40.0845C40.0845 16 40.0742 15.9353 40.0538 15.8059C40.0402 15.6697 40.0266 15.4994 40.0129 15.2951C39.9993 15.0907 39.9925 14.8898 39.9925 14.6923V10.9224ZM42.1651 10.9224H46.1087V11.9542H42.1651V10.9224ZM43.4728 9.53293H44.801V16H43.4728V9.53293ZM52.0506 11.9338L48.015 15.387L47.872 14.9988H52.1221V16H46.9219V14.9988L50.9574 11.5456L51.1004 11.9338H46.9219V10.9224H52.0506V11.9338Z"/>
</mask>
<path d="M23.3715 15.8774L23.2363 16.142L23.2409 16.1442L23.3715 15.8774ZM22.595 15.244L22.3566 15.4213L22.3588 15.4242L22.595 15.244ZM22.1557 14.3858L21.8715 14.4723L21.872 14.474L22.1557 14.3858ZM22.1455 12.4242L21.8607 12.3394L21.8591 12.345L22.1455 12.4242ZM22.5848 11.5865L22.8136 11.776L22.8161 11.7728L22.5848 11.5865ZM23.3612 11.0143L23.2449 10.741L23.3612 11.0143ZM25.9154 11.1471L25.7703 11.4065L25.7756 11.4093L25.9154 11.1471ZM26.8757 12.0666L26.6194 12.2169L26.6214 12.2201L26.8757 12.0666ZM26.8757 14.8557L27.1301 15.0092L27.1312 15.0073L26.8757 14.8557ZM25.9052 15.7855L26.045 16.0476L26.0483 16.0458L25.9052 15.7855ZM25.0368 14.8864L25.1723 15.1507L25.0368 14.8864ZM25.6497 14.3245L25.3962 14.1696L25.395 14.1716L25.6497 14.3245ZM25.4046 12.2812L25.1968 12.4936L25.1992 12.4959L25.4046 12.2812ZM23.065 12.0258L22.9449 11.754L22.9449 11.754L23.065 12.0258ZM22.3805 12.5877L22.1333 12.4229L22.1322 12.4245L22.3805 12.5877ZM23.0547 14.8864L23.18 14.617L23.0547 14.8864ZM22.1455 8.87907H22.4426V8.58199H22.1455V8.87907ZM22.1148 15.3972L22.4109 15.4219L22.4109 15.4212L22.1148 15.3972ZM22.0535 16V16.2971H22.3144L22.3481 16.0384L22.0535 16ZM20.8173 16H20.5202V16.2971H20.8173V16ZM20.8173 8.87907V8.58199H20.5202V8.87907H20.8173ZM24.5259 15.8153C24.1102 15.8153 23.7723 15.7428 23.502 15.6106L23.2409 16.1442C23.6109 16.3253 24.0426 16.4095 24.5259 16.4095V15.8153ZM23.5066 15.6128C23.2219 15.4674 22.999 15.2837 22.8312 15.0637L22.3588 15.4242C22.586 15.7219 22.8808 15.9604 23.2364 16.142L23.5066 15.6128ZM22.8334 15.0667C22.6553 14.8271 22.5244 14.571 22.4394 14.2975L21.872 14.474C21.9776 14.8135 22.1397 15.1296 22.3566 15.4212L22.8334 15.0667ZM22.4399 14.2993C22.3523 14.0114 22.3097 13.7341 22.3097 13.4663H21.7156C21.7156 13.7979 21.7684 14.1335 21.8715 14.4723L22.4399 14.2993ZM22.3097 13.4663C22.3097 13.1151 22.3512 12.7947 22.4318 12.5034L21.8591 12.345C21.7626 12.694 21.7156 13.0683 21.7156 13.4663H22.3097ZM22.4302 12.509C22.515 12.2242 22.6435 11.9812 22.8135 11.776L22.356 11.3969C22.131 11.6684 21.9666 11.984 21.8608 12.3394L22.4302 12.509ZM22.8161 11.7728C22.9799 11.5695 23.1976 11.4068 23.4776 11.2877L23.2449 10.741C22.8847 10.8943 22.5847 11.113 22.3534 11.4001L22.8161 11.7728ZM23.4776 11.2877C23.7514 11.1712 24.0977 11.1071 24.5259 11.1071V10.5129C24.0415 10.5129 23.6114 10.585 23.2449 10.741L23.4776 11.2877ZM24.5259 11.1071C25.0068 11.1071 25.4187 11.2097 25.7704 11.4064L26.0604 10.8879C25.6084 10.635 25.094 10.5129 24.5259 10.5129V11.1071ZM25.7756 11.4093C26.1364 11.6017 26.416 11.8697 26.6194 12.2169L27.132 11.9164C26.8724 11.4734 26.5117 11.1285 26.0552 10.885L25.7756 11.4093ZM26.6214 12.2201C26.8275 12.5616 26.9362 12.9732 26.9362 13.4663H27.5304C27.5304 12.8832 27.4008 12.3617 27.1301 11.9131L26.6214 12.2201ZM26.9362 13.4663C26.9362 13.9441 26.8282 14.3536 26.6202 14.7042L27.1312 15.0073C27.4001 14.5542 27.5304 14.0374 27.5304 13.4663H26.9362ZM26.6214 14.7023C26.4103 15.052 26.1254 15.3253 25.762 15.5251L26.0483 16.0458C26.5023 15.7961 26.8644 15.4496 27.1301 15.0092L26.6214 14.7023ZM25.7654 15.5233C25.404 15.716 24.9931 15.8153 24.5259 15.8153V16.4095C25.0804 16.4095 25.589 16.2908 26.045 16.0476L25.7654 15.5233ZM24.0968 15.3878C24.4952 15.3878 24.8568 15.3125 25.1723 15.1507L24.9012 14.622C24.6854 14.7327 24.4204 14.7936 24.0968 14.7936V15.3878ZM25.1723 15.1507C25.4835 14.9912 25.7308 14.7668 25.9045 14.4773L25.395 14.1716C25.2826 14.3589 25.1213 14.5092 24.9012 14.622L25.1723 15.1507ZM25.9032 14.4794C26.0854 14.1814 26.1716 13.8402 26.1716 13.4663H25.5774C25.5774 13.7463 25.5138 13.9772 25.3963 14.1696L25.9032 14.4794ZM26.1716 13.4663C26.1716 12.9065 25.9897 12.4298 25.6099 12.0665L25.1992 12.4959C25.446 12.7319 25.5774 13.0453 25.5774 13.4663H26.1716ZM25.6122 12.0688C25.2343 11.6992 24.7142 11.5346 24.0968 11.5346V12.1287C24.6101 12.1287 24.9618 12.2638 25.1969 12.4936L25.6122 12.0688ZM24.0968 11.5346C23.6699 11.5346 23.2833 11.6045 22.9449 11.754L23.185 12.2975C23.4323 12.1882 23.7337 12.1287 24.0968 12.1287V11.5346ZM22.9449 11.754C22.605 11.9042 22.3308 12.1266 22.1333 12.4229L22.6276 12.7525C22.7571 12.5583 22.9392 12.4061 23.185 12.2975L22.9449 11.754ZM22.1322 12.4245C21.9373 12.721 21.8484 13.0737 21.8484 13.4663H22.4426C22.4426 13.1642 22.5103 12.9311 22.6287 12.7508L22.1322 12.4245ZM21.8484 13.4663C21.8484 13.8372 21.9399 14.1765 22.1301 14.4742L22.6308 14.1543C22.5077 13.9616 22.4426 13.7356 22.4426 13.4663H21.8484ZM22.1301 14.4742C22.3205 14.7722 22.5912 14.9984 22.9295 15.1558L23.18 14.617C22.9326 14.5019 22.7537 14.3467 22.6308 14.1543L22.1301 14.4742ZM22.9295 15.1558C23.2699 15.3141 23.662 15.3878 24.0968 15.3878V14.7936C23.728 14.7936 23.4253 14.7311 23.18 14.617L22.9295 15.1558ZM21.8484 8.87907V14.6923H22.4426V8.87907H21.8484ZM21.8484 14.6923C21.8484 14.9011 21.8386 15.128 21.8187 15.3732L22.4109 15.4212C22.4319 15.1625 22.4426 14.9194 22.4426 14.6923H21.8484ZM21.8188 15.3726C21.7985 15.6154 21.7785 15.8113 21.7589 15.9616L22.3481 16.0384C22.3694 15.8754 22.3902 15.6695 22.4109 15.4219L21.8188 15.3726ZM22.0535 15.7029H20.8173V16.2971H22.0535V15.7029ZM21.1144 16V8.87907H20.5202V16H21.1144ZM20.8173 9.17615H22.1455V8.58199H20.8173V9.17615ZM32.8436 14.3143V14.0172H32.6334L32.5635 14.2154L32.8436 14.3143ZM34.1309 14.3143L34.4244 14.3603L34.4782 14.0172H34.1309V14.3143ZM33.6916 15.244L33.468 15.0483L33.4652 15.0516L33.6916 15.244ZM32.7415 15.8876L32.6336 15.6108L32.7415 15.8876ZM29.5539 15.8161L29.4378 16.0896L29.441 16.0909L29.5539 15.8161ZM28.3892 14.9068L28.6318 14.7353L28.3892 14.9068ZM28.379 12.0462L28.6236 12.2149L28.6249 12.2129L28.379 12.0462ZM29.513 11.1267L29.3956 10.8538L29.3942 10.8544L29.513 11.1267ZM32.8947 11.1267L33.0226 10.8586V10.8586L32.8947 11.1267ZM33.8755 12.0871L33.6089 12.2183L33.6115 12.2233L33.8755 12.0871ZM34.1514 13.7115V14.0086H34.4335L34.448 13.7268L34.1514 13.7115ZM29.3087 13.7115V13.4144H28.97L29.0142 13.7502L29.3087 13.7115ZM29.5948 14.4164L29.3561 14.5935L29.3599 14.5983L29.5948 14.4164ZM30.2486 14.917L30.1267 15.188L30.1292 15.1891L30.2486 14.917ZM32.2919 14.8864L32.4274 15.1508L32.4298 15.1496L32.2919 14.8864ZM29.9728 12.1484L30.1413 12.393L30.145 12.3905L29.9728 12.1484ZM29.3802 12.935L29.0943 12.8542L28.9875 13.2321H29.3802V12.935ZM32.8334 12.935V13.2321H33.1617L33.129 12.9055L32.8334 12.935ZM32.343 12.1279L32.1703 12.3698L32.1769 12.3742L32.343 12.1279ZM32.8436 14.6114H34.1309V14.0172H32.8436V14.6114ZM33.8374 14.2682C33.7919 14.5584 33.6706 14.8168 33.468 15.0483L33.9152 15.4396C34.1894 15.1262 34.361 14.7648 34.4244 14.3603L33.8374 14.2682ZM33.4652 15.0516C33.2715 15.2795 32.999 15.4684 32.6336 15.6108L32.8494 16.1644C33.2877 15.9935 33.6486 15.7533 33.918 15.4364L33.4652 15.0516ZM32.6336 15.6108C32.2757 15.7503 31.8242 15.8255 31.2703 15.8255V16.4197C31.8743 16.4197 32.4036 16.3382 32.8494 16.1644L32.6336 15.6108ZM31.2703 15.8255C30.6543 15.8255 30.1217 15.7283 29.6668 15.5413L29.441 16.0909C29.9805 16.3126 30.5922 16.4197 31.2703 16.4197V15.8255ZM29.67 15.5427C29.2175 15.3505 28.8756 15.0802 28.6318 14.7353L28.1466 15.0783C28.4614 15.5236 28.8959 15.8594 29.4378 16.0895L29.67 15.5427ZM28.6318 14.7353C28.3933 14.3979 28.2674 13.9834 28.2674 13.4765H27.6733C27.6733 14.0866 27.8267 14.6257 28.1466 15.0783L28.6318 14.7353ZM28.2674 13.4765C28.2674 12.9681 28.3907 12.5526 28.6236 12.2149L28.1344 11.8775C27.8225 12.3299 27.6733 12.8679 27.6733 13.4765H28.2674ZM28.6249 12.2129C28.8631 11.8616 29.1952 11.5897 29.6319 11.399L29.3942 10.8544C28.8638 11.086 28.4398 11.4271 28.1331 11.8795L28.6249 12.2129ZM29.6305 11.3996C30.0765 11.2076 30.6071 11.1071 31.2294 11.1071V10.5129C30.544 10.5129 29.9304 10.6236 29.3956 10.8538L29.6305 11.3996ZM31.2294 11.1071C31.8678 11.1071 32.3758 11.2083 32.7668 11.3949L33.0226 10.8586C32.5282 10.6228 31.926 10.5129 31.2294 10.5129V11.1071ZM32.7668 11.3949C33.1509 11.578 33.4281 11.8507 33.6089 12.2182L34.1421 11.9559C33.9006 11.4652 33.524 11.0977 33.0226 10.8586L32.7668 11.3949ZM33.6115 12.2233C33.7977 12.5841 33.887 13.0684 33.8547 13.6962L34.448 13.7268C34.4838 13.0332 34.3892 12.4346 34.1395 11.9508L33.6115 12.2233ZM34.1514 13.4144H29.3087V14.0086H34.1514V13.4144ZM29.0142 13.7502C29.0549 14.0595 29.1697 14.342 29.3562 14.5935L29.8334 14.2394C29.7066 14.0686 29.6307 13.8811 29.6033 13.6727L29.0142 13.7502ZM29.3599 14.5983C29.5565 14.8523 29.8152 15.0478 30.1267 15.188L30.3705 14.6461C30.1371 14.5411 29.9599 14.4028 29.8297 14.2346L29.3599 14.5983ZM30.1292 15.1891C30.4543 15.3318 30.8271 15.398 31.2396 15.398V14.8039C30.8893 14.8039 30.6015 14.7475 30.3681 14.645L30.1292 15.1891ZM31.2396 15.398C31.6935 15.398 32.0943 15.3214 32.4274 15.1508L32.1565 14.622C31.9311 14.7374 31.6304 14.8039 31.2396 14.8039V15.398ZM32.4298 15.1496C32.7608 14.9762 33.01 14.7355 33.1238 14.4131L32.5635 14.2154C32.5138 14.3562 32.3952 14.4969 32.1541 14.6232L32.4298 15.1496ZM31.1681 11.5244C30.6347 11.5244 30.1707 11.6431 29.8006 11.9063L30.145 12.3905C30.3878 12.2178 30.7208 12.1185 31.1681 12.1185V11.5244ZM29.8042 11.9037C29.4494 12.1482 29.2044 12.4649 29.0943 12.8542L29.6661 13.0158C29.7332 12.7786 29.8832 12.5708 30.1413 12.393L29.8042 11.9037ZM29.3802 13.2321H32.8334V12.638H29.3802V13.2321ZM33.129 12.9055C33.0859 12.4738 32.8725 12.1267 32.5091 11.8816L32.1769 12.3742C32.3993 12.5242 32.5129 12.7152 32.5378 12.9646L33.129 12.9055ZM32.5157 11.8862C32.1623 11.6337 31.7024 11.5244 31.1681 11.5244V12.1185C31.6282 12.1185 31.9517 12.2135 32.1703 12.3697L32.5157 11.8862ZM36.2328 15.7855L36.0896 16.0458L36.0948 16.0485L36.2328 15.7855ZM35.252 14.8557L34.9965 15.0073L34.9996 15.0124L35.252 14.8557ZM35.2622 12.0666L35.5147 12.2233L35.2622 12.0666ZM36.2532 11.1471L36.3913 11.4102L36.3928 11.4094L36.2532 11.1471ZM39.0934 11.1676L38.9275 11.4141L38.933 11.4176L39.0934 11.1676ZM39.8801 12.1177L40.1553 12.0058V12.0058L39.8801 12.1177ZM39.9823 14.3858L40.266 14.474L40.2665 14.4723L39.9823 14.3858ZM39.543 15.244L39.7792 15.4242L39.7814 15.4212L39.543 15.244ZM38.7665 15.8774L38.8971 16.1443L38.9016 16.142L38.7665 15.8774ZM39.0832 14.8864L38.9579 14.617L39.0832 14.8864ZM39.7575 14.3143L40.0079 14.4742L39.7575 14.3143ZM39.7473 12.5877L39.4968 12.7477L39.5023 12.7557L39.7473 12.5877ZM39.073 12.036L38.9505 12.3068L38.9583 12.31L39.073 12.036ZM36.7232 12.2914L36.9261 12.5084L36.9286 12.5061L36.7232 12.2914ZM36.478 14.3245L36.2245 14.4794L36.2265 14.4826L36.478 14.3245ZM37.1012 14.8864L36.9656 15.1508L36.9684 15.1521L37.1012 14.8864ZM39.9925 10.9224V10.6253H39.6954V10.9224H39.9925ZM41.3207 10.9224H41.6177V10.6253H41.3207V10.9224ZM41.3207 16V16.2971H41.6177V16H41.3207ZM40.0844 16L39.791 16.0463L39.8306 16.2971H40.0844V16ZM40.0538 15.8059L39.7582 15.8354L39.759 15.8439L39.7604 15.8522L40.0538 15.8059ZM40.0129 15.2951L39.7165 15.3148V15.3148L40.0129 15.2951ZM37.612 15.8153C37.1524 15.8153 36.7406 15.7164 36.3708 15.5224L36.0948 16.0485C36.556 16.2905 37.0636 16.4095 37.612 16.4095V15.8153ZM36.376 15.5251C36.0119 15.3249 35.7226 15.0506 35.5044 14.6991L34.9996 15.0124C35.2718 15.451 35.6364 15.7965 36.0896 16.0458L36.376 15.5251ZM35.5075 14.7042C35.2996 14.3536 35.1915 13.9441 35.1915 13.4663H34.5974C34.5974 14.0374 34.7277 14.5542 34.9965 15.0073L35.5075 14.7042ZM35.1915 13.4663C35.1915 12.9747 35.303 12.5643 35.5147 12.2233L35.0098 11.91C34.7311 12.359 34.5974 12.8817 34.5974 13.4663H35.1915ZM35.5147 12.2233C35.7316 11.8737 36.0223 11.6038 36.3913 11.4102L36.1152 10.8841C35.6533 11.1264 35.2832 11.4694 35.0098 11.91L35.5147 12.2233ZM36.3928 11.4094C36.7676 11.2099 37.1955 11.1071 37.6836 11.1071V10.5129C37.1091 10.5129 36.5835 10.6348 36.1137 10.8849L36.3928 11.4094ZM37.6836 11.1071C38.2316 11.1071 38.6376 11.2188 38.9276 11.414L39.2593 10.9211C38.841 10.6395 38.3071 10.5129 37.6836 10.5129V11.1071ZM38.933 11.4176C39.2418 11.6157 39.4643 11.8839 39.6049 12.2297L40.1553 12.0058C39.969 11.5478 39.6671 11.1826 39.2539 10.9175L38.933 11.4176ZM39.6049 12.2297C39.752 12.5911 39.8282 13.0019 39.8282 13.4663H40.4224C40.4224 12.9363 40.3352 12.448 40.1553 12.0058L39.6049 12.2297ZM39.8282 13.4663C39.8282 13.7341 39.7857 14.0114 39.6981 14.2993L40.2665 14.4723C40.3696 14.1335 40.4224 13.7979 40.4224 13.4663H39.8282ZM39.6986 14.2975C39.6135 14.571 39.4827 14.8271 39.3046 15.0667L39.7814 15.4212C39.9983 15.1296 40.1603 14.8135 40.266 14.474L39.6986 14.2975ZM39.3068 15.0637C39.1389 15.2837 38.9161 15.4674 38.6314 15.6128L38.9016 16.142C39.2571 15.9604 39.552 15.7219 39.7791 15.4242L39.3068 15.0637ZM38.6359 15.6106C38.3657 15.7428 38.0278 15.8153 37.612 15.8153V16.4095C38.0953 16.4095 38.5271 16.3253 38.8971 16.1442L38.6359 15.6106ZM38.0411 15.3878C38.476 15.3878 38.868 15.3141 39.2085 15.1558L38.9579 14.617C38.7127 14.7311 38.41 14.7936 38.0411 14.7936V15.3878ZM39.2085 15.1558C39.5468 14.9984 39.8175 14.7722 40.0079 14.4742L39.5072 14.1543C39.3842 14.3467 39.2054 14.5019 38.9579 14.617L39.2085 15.1558ZM40.0079 14.4742C40.1981 14.1765 40.2896 13.8372 40.2896 13.4663H39.6954C39.6954 13.7356 39.6303 13.9616 39.5072 14.1543L40.0079 14.4742ZM40.2896 13.4663C40.2896 13.0713 40.1961 12.7168 39.9923 12.4197L39.5023 12.7557C39.6255 12.9353 39.6954 13.1666 39.6954 13.4663H40.2896ZM39.9977 12.4277C39.8055 12.1269 39.531 11.9057 39.1877 11.7619L38.9583 12.31C39.2007 12.4115 39.3758 12.558 39.497 12.7476L39.9977 12.4277ZM39.1955 11.7653C38.8617 11.6143 38.4738 11.5448 38.0411 11.5448V12.1389C38.4121 12.1389 38.7121 12.1988 38.9506 12.3067L39.1955 11.7653ZM38.0411 11.5448C37.4234 11.5448 36.9017 11.7096 36.5179 12.0767L36.9286 12.5061C37.1714 12.2738 37.5283 12.1389 38.0411 12.1389V11.5448ZM36.5203 12.0744C36.1381 12.4317 35.9562 12.9066 35.9562 13.4663H36.5503C36.5503 13.0452 36.6817 12.7368 36.9261 12.5084L36.5203 12.0744ZM35.9562 13.4663C35.9562 13.8402 36.0424 14.1814 36.2245 14.4794L36.7315 14.1696C36.6139 13.9772 36.5503 13.7463 36.5503 13.4663H35.9562ZM36.2265 14.4826C36.4065 14.7689 36.6555 14.9917 36.9657 15.1507L37.2368 14.622C37.0157 14.5087 36.8492 14.3568 36.7295 14.1664L36.2265 14.4826ZM36.9684 15.1521C37.2883 15.3121 37.6483 15.3878 38.0411 15.3878V14.7936C37.7256 14.7936 37.459 14.7332 37.2341 14.6207L36.9684 15.1521ZM39.9925 11.2195H41.3207V10.6253H39.9925V11.2195ZM41.0236 10.9224V16H41.6177V10.9224H41.0236ZM41.3207 15.7029H40.0844V16.2971H41.3207V15.7029ZM40.0844 16C40.3779 15.9537 40.3779 15.9537 40.3779 15.9537C40.3779 15.9537 40.3779 15.9537 40.3779 15.9537C40.3779 15.9537 40.3779 15.9537 40.3779 15.9537C40.3779 15.9537 40.3779 15.9537 40.3779 15.9537C40.3779 15.9537 40.3779 15.9536 40.3779 15.9536C40.3779 15.9536 40.3779 15.9536 40.3779 15.9536C40.3779 15.9536 40.3779 15.9536 40.3779 15.9536C40.3779 15.9536 40.3779 15.9536 40.3779 15.9535C40.3779 15.9535 40.3779 15.9535 40.3779 15.9535C40.3779 15.9534 40.3779 15.9534 40.3779 15.9534C40.3778 15.9533 40.3779 15.9535 40.3778 15.9534C40.3778 15.9533 40.3778 15.9533 40.3778 15.9533C40.3778 15.9533 40.3778 15.9533 40.3778 15.9532C40.3778 15.953 40.3778 15.9531 40.3778 15.9529C40.3778 15.9529 40.3777 15.9525 40.3777 15.9525C40.3777 15.9523 40.3777 15.9522 40.3776 15.952C40.3776 15.9517 40.3776 15.9516 40.3775 15.9513C40.3774 15.9508 40.3776 15.9515 40.3775 15.951C40.3774 15.9508 40.3775 15.9509 40.3774 15.9506C40.3774 15.9504 40.3773 15.9501 40.3773 15.9498C40.3773 15.9498 40.3773 15.9498 40.3773 15.9497C40.3773 15.9497 40.3773 15.9496 40.3773 15.9496C40.3772 15.9491 40.3773 15.9499 40.3772 15.9494C40.3772 15.9492 40.3772 15.9491 40.3771 15.9489C40.3767 15.9459 40.3773 15.95 40.3768 15.9468C40.3765 15.945 40.3764 15.9439 40.376 15.9415C40.3754 15.938 40.3745 15.9319 40.3736 15.9264C40.371 15.9098 40.3732 15.9237 40.3702 15.9051C40.3671 15.8854 40.3651 15.8723 40.3607 15.8445C40.3578 15.8265 40.3576 15.825 40.3544 15.805C40.3544 15.8046 40.3537 15.8002 40.3536 15.7997C40.3535 15.7989 40.3535 15.7991 40.3534 15.7983C40.3523 15.7917 40.3542 15.8036 40.3532 15.797C40.3529 15.7954 40.353 15.7959 40.3527 15.7942C40.3523 15.7918 40.3514 15.7856 40.351 15.7831C40.3508 15.7819 40.3507 15.7814 40.3505 15.7802C40.3503 15.7791 40.3505 15.7799 40.3503 15.7788C40.3496 15.7747 40.3507 15.7814 40.3501 15.7773C40.35 15.7771 40.35 15.7768 40.3499 15.7766C40.3499 15.7764 40.3499 15.7761 40.3498 15.7759C40.3498 15.7756 40.3497 15.7754 40.3497 15.7751C40.3497 15.7749 40.3496 15.7747 40.3496 15.7744C40.3491 15.771 40.3497 15.7749 40.3491 15.7715C40.349 15.7706 40.3474 15.7606 40.3472 15.7596L39.7604 15.8522C39.7742 15.94 39.7746 15.9424 39.7833 15.9978C39.7851 16.0091 39.7834 15.9983 39.7851 16.0092C39.7853 16.0104 39.7858 16.0132 39.7859 16.0143C39.7864 16.0172 39.7863 16.0162 39.7867 16.019C39.7868 16.0197 39.7868 16.0195 39.7869 16.0202C39.7869 16.0202 39.787 16.0207 39.787 16.0207C39.787 16.0208 39.787 16.0209 39.787 16.021C39.787 16.0211 39.787 16.0212 39.787 16.0213C39.7874 16.0234 39.787 16.0213 39.7874 16.0234C39.7882 16.0285 39.7872 16.0224 39.788 16.0274C39.7884 16.0299 39.7888 16.0321 39.7891 16.0342C39.7904 16.0424 39.7895 16.0371 39.7905 16.0433C39.7908 16.0451 39.7907 16.0443 39.7909 16.0456C39.7909 16.0458 39.791 16.0461 39.791 16.0461C39.791 16.0463 39.791 16.0461 39.791 16.0462C39.791 16.0463 39.791 16.0462 39.791 16.0463C39.791 16.0463 39.791 16.0463 39.791 16.0463C39.791 16.0463 39.791 16.0463 39.791 16.0463C39.791 16.0463 39.791 16.0463 39.791 16.0463C39.791 16.0463 39.791 16.0463 39.791 16.0463C39.791 16.0463 39.791 16.0463 39.791 16.0463C39.791 16.0463 39.791 16.0463 39.791 16.0463C39.791 16.0463 39.791 16.0463 39.791 16.0463C39.791 16.0463 39.791 16.0463 40.0844 16ZM40.3494 15.7763C40.3362 15.6445 40.3229 15.4778 40.3094 15.2753L39.7165 15.3148C39.7303 15.521 39.7441 15.6948 39.7582 15.8354L40.3494 15.7763ZM40.3094 15.2753C40.2962 15.0773 40.2896 14.883 40.2896 14.6923H39.6954C39.6954 14.8966 39.7025 15.1042 39.7165 15.3148L40.3094 15.2753ZM40.2896 14.6923V10.9224H39.6954V14.6923H40.2896ZM42.1651 10.9224V10.6253H41.868V10.9224H42.1651ZM46.1087 10.9224H46.4058V10.6253H46.1087V10.9224ZM46.1087 11.9542V12.2513H46.4058V11.9542H46.1087ZM42.1651 11.9542H41.868V12.2513H42.1651V11.9542ZM43.4728 9.53293V9.23585H43.1758V9.53293H43.4728ZM44.801 9.53293H45.0981V9.23585H44.801V9.53293ZM44.801 16V16.2971H45.0981V16H44.801ZM43.4728 16H43.1758V16.2971H43.4728V16ZM42.1651 11.2195H46.1087V10.6253H42.1651V11.2195ZM45.8116 10.9224V11.9542H46.4058V10.9224H45.8116ZM46.1087 11.6572H42.1651V12.2513H46.1087V11.6572ZM42.4622 11.9542V10.9224H41.868V11.9542H42.4622ZM43.4728 9.83001H44.801V9.23585H43.4728V9.83001ZM44.5039 9.53293V16H45.0981V9.53293H44.5039ZM44.801 15.7029H43.4728V16.2971H44.801V15.7029ZM43.7699 16V9.53293H43.1758V16H43.7699ZM52.0506 11.9338L52.2437 12.1595L52.3477 12.0706V11.9338H52.0506ZM48.015 15.387L47.7363 15.4897L47.8839 15.8903L48.2082 15.6127L48.015 15.387ZM47.872 14.9988V14.7017H47.446L47.5932 15.1015L47.872 14.9988ZM52.1221 14.9988H52.4192V14.7017H52.1221V14.9988ZM52.1221 16V16.2971H52.4192V16H52.1221ZM46.9219 16H46.6248V16.2971H46.9219V16ZM46.9219 14.9988L46.7287 14.7731L46.6248 14.862V14.9988H46.9219ZM50.9574 11.5456L51.2362 11.4429L51.0886 11.0423L50.7643 11.3199L50.9574 11.5456ZM51.1004 11.9338V12.2309H51.5265L51.3792 11.8311L51.1004 11.9338ZM46.9219 11.9338H46.6248V12.2309H46.9219V11.9338ZM46.9219 10.9224V10.6253H46.6248V10.9224H46.9219ZM52.0506 10.9224H52.3477V10.6253H52.0506V10.9224ZM51.8574 11.7081L47.8219 15.1613L48.2082 15.6127L52.2437 12.1595L51.8574 11.7081ZM48.2938 15.2843L48.1508 14.8961L47.5932 15.1015L47.7363 15.4897L48.2938 15.2843ZM47.872 15.2959H52.1221V14.7017H47.872V15.2959ZM51.825 14.9988V16H52.4192V14.9988H51.825ZM52.1221 15.7029H46.9219V16.2971H52.1221V15.7029ZM47.219 16V14.9988H46.6248V16H47.219ZM47.115 15.2245L51.1506 11.7713L50.7643 11.3199L46.7287 14.7731L47.115 15.2245ZM50.6786 11.6483L50.8217 12.0365L51.3792 11.8311L51.2362 11.4429L50.6786 11.6483ZM51.1004 11.6367H46.9219V12.2309H51.1004V11.6367ZM47.219 11.9338V10.9224H46.6248V11.9338H47.219ZM46.9219 11.2195H52.0506V10.6253H46.9219V11.2195ZM51.7535 10.9224V11.9338H52.3477V10.9224H51.7535Z" fill="#4E67C2" mask="url(#path-10-outside-1_814_239)"/>
<defs>
<filter id="filter0_d_814_239" x="4.097" y="4.75781" width="10.7513" height="11.77" filterUnits="userSpaceOnUse" color-interpolation-filters="sRGB">
<feFlood flood-opacity="0" result="BackgroundImageFix"/>
<feColorMatrix in="SourceAlpha" type="matrix" values="0 0 0 0 0 0 0 0 0 0 0 0 0 0 0 0 0 0 127 0" result="hardAlpha"/>
<feOffset dy="0.999823"/>
<feGaussianBlur stdDeviation="0.349938"/>
<feComposite in2="hardAlpha" operator="out"/>
<feColorMatrix type="matrix" values="0 0 0 0 0 0 0 0 0 0 0 0 0 0 0 0 0 0 0.25 0"/>
<feBlend mode="normal" in2="BackgroundImageFix" result="effect1_dropShadow_814_239"/>
<feBlend mode="normal" in="SourceGraphic" in2="effect1_dropShadow_814_239" result="shape"/>
</filter>
<linearGradient id="paint0_linear_814_239" x1="10.1649" y1="1.17188" x2="-1.58305" y2="18.4188" gradientUnits="userSpaceOnUse">
<stop stop-color="#5D79DC"/>
<stop offset="0.755989" stop-color="#2A45A6"/>
</linearGradient>
</defs>
</svg>
