<svg width="11" height="10" viewBox="0 0 11 10" fill="none" xmlns="http://www.w3.org/2000/svg">
<mask id="mask0_878_98" style="mask-type:alpha" maskUnits="userSpaceOnUse" x="0" y="0" width="11" height="10">
<circle cx="5.67898" cy="5.22585" r="4.52273" stroke="black" stroke-width="0.5"/>
<path d="M5.67969 2.72656C5.00007 2.72656 4.91537 2.72984 4.6494 2.7411C4.38234 2.75422 4.20169 2.79563 4.0423 2.85752C3.8779 2.9219 3.73788 3.00738 3.59958 3.14646C3.46035 3.28476 3.37409 3.42477 3.31064 3.58917C3.24876 3.74857 3.20735 3.92921 3.19422 4.19628C3.18219 4.4624 3.17969 4.54695 3.17969 5.22656C3.17969 5.90618 3.18297 5.99088 3.19422 6.25685C3.20735 6.52313 3.24876 6.70456 3.31064 6.86395C3.37502 7.02835 3.4605 7.16837 3.59958 7.30667C3.73788 7.4459 3.8779 7.53216 4.0423 7.59561C4.20169 7.65671 4.38312 7.6989 4.6494 7.71203C4.91553 7.72406 5.00007 7.72656 5.67969 7.72656C6.3593 7.72656 6.444 7.72328 6.70997 7.71203C6.97626 7.6989 7.15768 7.65655 7.31708 7.59561C7.48148 7.53123 7.62149 7.44575 7.75979 7.30667C7.89903 7.16837 7.98529 7.02913 8.04873 6.86395C8.10984 6.70456 8.15203 6.52313 8.16515 6.25685C8.17719 5.99072 8.17969 5.90618 8.17969 5.22656C8.17969 4.54695 8.17641 4.46225 8.16515 4.19628C8.15203 3.92999 8.10968 3.74763 8.04873 3.58917C7.98435 3.42477 7.89887 3.28476 7.75979 3.14646C7.62149 3.00722 7.48226 2.92096 7.31708 2.85752C7.15768 2.79563 6.97626 2.75422 6.70997 2.7411C6.44385 2.72906 6.3593 2.72656 5.67969 2.72656ZM5.67969 3.17662C6.34711 3.17662 6.42681 3.1799 6.69059 3.19115C6.93391 3.20256 7.06642 3.24319 7.1544 3.27757C7.27176 3.32304 7.3538 3.3768 7.44256 3.46462C7.52961 3.55167 7.58336 3.63464 7.62884 3.752C7.66322 3.83998 7.70385 3.9725 7.71525 4.21581C7.72651 4.47959 7.72979 4.55945 7.72979 5.22672C7.72979 5.89399 7.72651 5.97384 7.71432 6.23763C7.70119 6.48094 7.66056 6.61345 7.62634 6.70143C7.57899 6.81879 7.52617 6.90083 7.43897 6.9896C7.35099 7.07664 7.26723 7.13039 7.15081 7.17587C7.06392 7.21025 6.92953 7.25088 6.68528 7.26229C6.42009 7.27354 6.34196 7.27682 5.67281 7.27682C5.00367 7.27682 4.92569 7.27354 4.66019 7.26135C4.41687 7.24822 4.28264 7.20759 4.19466 7.17337C4.07589 7.12602 3.99448 7.0732 3.90728 6.986C3.8193 6.89802 3.76335 6.81426 3.72022 6.69784C3.68522 6.61095 3.64521 6.47656 3.63224 6.23231C3.62334 5.97025 3.61912 5.88899 3.61912 5.22297C3.61912 4.55726 3.62334 4.47584 3.63224 4.2105C3.64521 3.96625 3.68522 3.83217 3.72022 3.74497C3.76335 3.62605 3.81946 3.54479 3.90728 3.45681C3.99432 3.36977 4.07589 3.31351 4.19466 3.26944C4.28264 3.23522 4.41359 3.19459 4.65784 3.1824C4.92303 3.17287 5.00117 3.16943 5.66937 3.16943L5.67969 3.17662ZM5.67969 3.94343C4.97007 3.94343 4.39625 4.51804 4.39625 5.22688C4.39625 5.9365 4.97085 6.51032 5.67969 6.51032C6.38931 6.51032 6.96313 5.93571 6.96313 5.22688C6.96313 4.51726 6.38853 3.94343 5.67969 3.94343ZM5.67969 6.06026C5.219 6.06026 4.8463 5.68756 4.8463 5.22688C4.8463 4.76619 5.219 4.39349 5.67969 4.39349C6.14037 4.39349 6.51307 4.76619 6.51307 5.22688C6.51307 5.68756 6.14037 6.06026 5.67969 6.06026ZM7.31489 3.89218C7.31489 4.05829 7.17972 4.19237 7.01439 4.19237C6.84827 4.19237 6.71419 4.05814 6.71419 3.89218C6.71419 3.727 6.84921 3.59261 7.01439 3.59261C7.17956 3.59261 7.31489 3.727 7.31489 3.89218Z" fill="black"/>
</mask>
<g mask="url(#mask0_878_98)">
<rect x="0.90625" y="0.453125" width="9.54545" height="9.54545" fill="#4E67C2"/>
</g>
</svg>
