<svg width="10" height="10" viewBox="0 0 10 10" fill="none" xmlns="http://www.w3.org/2000/svg">
<mask id="mask0_878_93" style="mask-type:alpha" maskUnits="userSpaceOnUse" x="0" y="0" width="11" height="10">
<circle cx="5.22976" cy="4.77273" r="4.52273" stroke="black" stroke-width="0.5"/>
<path d="M5.57087 2.73035C5.85645 2.72656 6.13984 2.72846 6.42324 2.72656C6.44068 3.01633 6.56058 3.31178 6.80474 3.51633C7.04889 3.72655 7.39333 3.82314 7.72905 3.85534V4.61858C7.41513 4.60911 7.09903 4.5523 6.81346 4.43487C6.6892 4.38563 6.57366 4.32313 6.4603 4.25874C6.45812 4.81176 6.46248 5.36479 6.45594 5.91592C6.4385 6.18106 6.33822 6.44432 6.16164 6.66212C5.87607 7.02575 5.38121 7.26249 4.87327 7.27007C4.56154 7.28522 4.2498 7.21135 3.98384 7.07499C3.54349 6.84962 3.23393 6.43674 3.18815 5.99357C3.18379 5.89887 3.18161 5.80418 3.18597 5.71137C3.22521 5.35153 3.43013 5.00684 3.74841 4.77199C4.11028 4.49927 4.61604 4.36859 5.08909 4.44624C5.09345 4.72654 5.08037 5.00684 5.08037 5.28714C4.86455 5.22653 4.61168 5.24358 4.42202 5.35721C4.28468 5.43486 4.18004 5.55418 4.12554 5.68865C4.07976 5.78524 4.09284 5.8913 4.09502 5.99357C4.14734 6.30417 4.49178 6.56553 4.85801 6.53712C5.10217 6.53523 5.33543 6.41212 5.46187 6.2322C5.50329 6.1697 5.54907 6.10531 5.55125 6.03145C5.57305 5.69243 5.56433 5.35532 5.56651 5.01631C5.56869 4.25306 5.56433 3.4917 5.57087 2.73035Z" fill="black"/>
</mask>
<g mask="url(#mask0_878_93)">
<rect x="-1.36328" width="13.6364" height="9.54545" fill="#4E67C2"/>
</g>
</svg>
