<svg width="10" height="10" viewBox="0 0 10 10" fill="none" xmlns="http://www.w3.org/2000/svg">
<circle cx="4.77273" cy="4.77273" r="4.52273" stroke="#4E67C2" stroke-width="0.5"/>
<mask id="mask0_878_88" style="mask-type:alpha" maskUnits="userSpaceOnUse" x="1" y="2" width="7" height="5">
<path d="M7.60593 3.36665C7.53797 3.1147 7.33774 2.91627 7.0835 2.84893C6.62268 2.72656 4.77486 2.72656 4.77486 2.72656C4.77486 2.72656 2.92704 2.72656 2.46621 2.84893C2.21198 2.91628 2.01175 3.1147 1.94379 3.36665C1.82031 3.82333 1.82031 4.77615 1.82031 4.77615C1.82031 4.77615 1.82031 5.72897 1.94379 6.18565C2.01175 6.4376 2.21198 6.62777 2.46621 6.69511C2.92704 6.81747 4.77486 6.81747 4.77486 6.81747C4.77486 6.81747 6.62267 6.81747 7.0835 6.69511C7.33774 6.62777 7.53797 6.4376 7.60593 6.18565C7.7294 5.72897 7.7294 4.77615 7.7294 4.77615C7.7294 4.77615 7.7294 3.82333 7.60593 3.36665ZM4.17051 5.64124V3.91106L5.71493 4.77617L4.17051 5.64124Z" fill="black"/>
</mask>
<g mask="url(#mask0_878_88)">
<rect x="-1.81641" y="-0.90625" width="12.2727" height="11.3636" fill="#4E67C2"/>
</g>
</svg>
